<?xml version="1.0" encoding="utf-8" standalone="no"?>
<!DOCTYPE svg PUBLIC "-//W3C//DTD SVG 1.1//EN"
  "http://www.w3.org/Graphics/SVG/1.1/DTD/svg11.dtd">
<svg xmlns:xlink="http://www.w3.org/1999/xlink" width="792pt" height="360pt" viewBox="0 0 792 360" xmlns="http://www.w3.org/2000/svg" version="1.1">
 <metadata>
  <rdf:RDF xmlns:dc="http://purl.org/dc/elements/1.1/" xmlns:cc="http://creativecommons.org/ns#" xmlns:rdf="http://www.w3.org/1999/02/22-rdf-syntax-ns#">
   <cc:Work>
    <dc:type rdf:resource="http://purl.org/dc/dcmitype/StillImage"/>
    <dc:format>image/svg+xml</dc:format>
    <dc:creator>
     <cc:Agent>
      <dc:title>Matplotlib v3.10.8, https://matplotlib.org/</dc:title>
     </cc:Agent>
    </dc:creator>
   </cc:Work>
  </rdf:RDF>
 </metadata>
 <defs>
  <style type="text/css">*{stroke-linejoin: round; stroke-linecap: butt}</style>
 </defs>
 <g id="figure_1">
  <g id="patch_1">
   <path d="M 0 360 
L 792 360 
L 792 0 
L 0 0 
z
" style="fill: #ffffff"/>
  </g>
  <g id="axes_1">
   <g id="patch_2">
    <path d="M 126.72 255.6 
L 768.24 255.6 
L 768.24 93.6 
L 126.72 93.6 
z
" style="fill: #ffffff"/>
   </g>
   <g id="PolyCollection_1">
    <path d="M 126.72 192.890323 
L 126.72 156.309677 
L 340.56 156.309677 
L 340.56 192.890323 
z
" clip-path="url(#p9eac686363)" style="fill: #eeedf2"/>
   </g>
   <g id="LineCollection_1">
    <path d="M 126.72 122.341935 
L 768.24 122.341935 
" clip-path="url(#p9eac686363)" style="fill: none; stroke: #e7e5eb"/>
   </g>
   <g id="LineCollection_2">
    <path d="M 126.72 174.6 
L 768.24 174.6 
" clip-path="url(#p9eac686363)" style="fill: none; stroke: #e7e5eb"/>
   </g>
   <g id="LineCollection_3">
    <path d="M 126.72 226.858065 
L 768.24 226.858065 
" clip-path="url(#p9eac686363)" style="fill: none; stroke: #e7e5eb"/>
   </g>
   <g id="matplotlib.axis_1">
    <g id="xtick_1">
     <g id="line2d_1"/>
     <g id="text_1">
      <text style="font-size: 12px; font-family: 'DejaVu Sans'; text-anchor: middle" x="126.72" y="274.718125" transform="rotate(-0 126.72 274.718125)">9/32</text>
     </g>
    </g>
    <g id="xtick_2">
     <g id="line2d_2"/>
     <g id="text_2">
      <text style="font-size: 12px; font-family: 'DejaVu Sans'; text-anchor: middle" x="340.56" y="274.718125" transform="rotate(-0 340.56 274.718125)">5/16</text>
     </g>
    </g>
    <g id="xtick_3">
     <g id="line2d_3"/>
     <g id="text_3">
      <text style="font-size: 12px; font-family: 'DejaVu Sans'; text-anchor: middle" x="483.12" y="274.718125" transform="rotate(-0 483.12 274.718125)">1/3</text>
     </g>
    </g>
    <g id="xtick_4">
     <g id="line2d_4"/>
     <g id="text_4">
      <text style="font-size: 12px; font-family: 'DejaVu Sans'; text-anchor: middle" x="768.24" y="274.718125" transform="rotate(-0 768.24 274.718125)">3/8</text>
     </g>
    </g>
    <g id="text_5">
     <text style="font-size: 12px; font-family: 'DejaVu Sans'; text-anchor: middle" x="447.48" y="298.331875" transform="rotate(-0 447.48 298.331875)">Time within the same fixed-runner opening</text>
    </g>
   </g>
   <g id="matplotlib.axis_2">
    <g id="ytick_1">
     <g id="line2d_5"/>
     <g id="text_6">
      <text style="font-size: 12px; font-family: 'DejaVu Sans'" transform="translate(61.559375 121.094123)">56 &amp; 113</text>
      <text style="font-size: 12px; font-family: 'DejaVu Sans'" transform="translate(86.46875 134.531498)">r = 1</text>
     </g>
    </g>
    <g id="ytick_2">
     <g id="line2d_6"/>
     <g id="text_7">
      <text style="font-size: 12px; font-family: 'DejaVu Sans'" transform="translate(61.559375 173.352187)">56 &amp; 114</text>
      <text style="font-size: 12px; font-family: 'DejaVu Sans'" transform="translate(86.46875 186.789562)">r = 2</text>
     </g>
    </g>
    <g id="ytick_3">
     <g id="line2d_7"/>
     <g id="text_8">
      <text style="font-size: 12px; font-family: 'DejaVu Sans'" transform="translate(61.559375 225.610252)">56 &amp; 115</text>
      <text style="font-size: 12px; font-family: 'DejaVu Sans'" transform="translate(86.46875 239.047627)">r = 3</text>
     </g>
    </g>
   </g>
   <g id="PolyCollection_2">
    <path d="M 141.994286 130.703226 
L 141.994286 113.980645 
L 147.536283 113.980645 
L 147.536283 130.703226 
z
" clip-path="url(#p9eac686363)" style="fill: #6550a1"/>
    <path d="M 264.188571 130.703226 
L 264.188571 113.980645 
L 268.649204 113.980645 
L 268.649204 130.703226 
z
" clip-path="url(#p9eac686363)" style="fill: #6550a1"/>
    <path d="M 386.382857 130.703226 
L 386.382857 113.980645 
L 389.762124 113.980645 
L 389.762124 130.703226 
z
" clip-path="url(#p9eac686363)" style="fill: #6550a1"/>
    <path d="M 508.577143 130.703226 
L 508.577143 113.980645 
L 510.875044 113.980645 
L 510.875044 130.703226 
z
" clip-path="url(#p9eac686363)" style="fill: #6550a1"/>
    <path d="M 630.771429 130.703226 
L 630.771429 113.980645 
L 631.987965 113.980645 
L 631.987965 130.703226 
z
" clip-path="url(#p9eac686363)" style="fill: #6550a1"/>
    <path d="M 752.965714 130.703226 
L 752.965714 113.980645 
L 753.100885 113.980645 
L 753.100885 130.703226 
z
" clip-path="url(#p9eac686363)" style="fill: #6550a1"/>
   </g>
   <g id="PolyCollection_3">
    <path d="M 415.591579 182.96129 
L 415.591579 166.23871 
L 416.931429 166.23871 
L 416.931429 182.96129 
z
" clip-path="url(#p9eac686363)" style="fill: #6550a1"/>
    <path d="M 535.642105 182.96129 
L 535.642105 166.23871 
L 539.125714 166.23871 
L 539.125714 182.96129 
z
" clip-path="url(#p9eac686363)" style="fill: #6550a1"/>
    <path d="M 655.692632 182.96129 
L 655.692632 166.23871 
L 661.32 166.23871 
L 661.32 182.96129 
z
" clip-path="url(#p9eac686363)" style="fill: #6550a1"/>
   </g>
   <g id="PolyCollection_4">
    <path d="M 158.33113 235.219355 
L 158.33113 218.496774 
L 172.542857 218.496774 
L 172.542857 235.219355 
z
" clip-path="url(#p9eac686363)" style="fill: #6550a1"/>
    <path d="M 277.337739 235.219355 
L 277.337739 218.496774 
L 292.213565 218.496774 
L 292.213565 235.219355 
z
" clip-path="url(#p9eac686363)" style="fill: #6550a1"/>
    <path d="M 396.344348 235.219355 
L 396.344348 218.496774 
L 411.220174 218.496774 
L 411.220174 235.219355 
z
" clip-path="url(#p9eac686363)" style="fill: #6550a1"/>
    <path d="M 515.350957 235.219355 
L 515.350957 218.496774 
L 530.226783 218.496774 
L 530.226783 235.219355 
z
" clip-path="url(#p9eac686363)" style="fill: #6550a1"/>
    <path d="M 634.357565 235.219355 
L 634.357565 218.496774 
L 649.233391 218.496774 
L 649.233391 235.219355 
z
" clip-path="url(#p9eac686363)" style="fill: #6550a1"/>
    <path d="M 753.364174 235.219355 
L 753.364174 218.496774 
L 768.24 218.496774 
L 768.24 235.219355 
z
" clip-path="url(#p9eac686363)" style="fill: #6550a1"/>
   </g>
   <g id="text_9">
    <text style="font-size: 10px; font-family: 'DejaVu Sans'; text-anchor: middle; fill: #605b69" x="233.64" y="154.219355" transform="rotate(-0 233.64 154.219355)">Overlap impossible here</text>
   </g>
  </g>
  <g id="text_10">
   <text style="font-weight: 700; font-size: 19px; font-family: 'DejaVu Sans'; text-anchor: start; fill: #272133" x="31.68" y="25.2" transform="rotate(-0 31.68 25.2)">Where the pair blocks at the same time</text>
  </g>
  <g id="text_11">
   <text style="font-size: 11px; font-family: 'DejaVu Sans'; text-anchor: start; fill: #605b69" x="31.68" y="54" transform="rotate(-0 31.68 54)">Only the second speed changes. Purple segments show exact intervals when both runners block.</text>
  </g>
  <g id="text_12">
   <text style="font-size: 9px; font-family: 'DejaVu Sans'; fill: #605b69" transform="translate(31.68 335.521969)">Eight total runners; distance threshold 1/8. These purple intervals are blocking overlaps, not clear times.</text>
   <text style="font-size: 9px; font-family: 'DejaVu Sans'; fill: #605b69" transform="translate(31.68 345.6)">Widths come from exact rational endpoints; the smallest segment may be hard to see at screen resolution.</text>
  </g>
 </g>
 <defs>
  <clipPath id="p9eac686363">
   <rect x="126.72" y="93.6" width="641.52" height="162"/>
  </clipPath>
 </defs>
</svg>
